<svg xmlns="http://www.w3.org/2000/svg" width="38" height="38" viewBox="0 0 38 38"><circle fill="#FFF" cx="19.154" cy="19" r="15.833"/><g fill-rule="evenodd" clip-rule="evenodd"><path fill="#DB7D43" d="M26.122 17.43c0 .375-.017.733-.078 1.11a7.455 7.455 0 0 1-7.363 6.295c-4.102 0-7.453-3.344-7.453-7.454 0-3.528 2.476-6.497 5.774-7.263a7.422 7.422 0 0 1 1.196-.174c.132-.012.208.08.187.143v1.512c0 .168-.062.19-.204.202a5.65 5.65 0 0 0-.922.16 5.62 5.62 0 0 0-4.18 5.42c0 3.095 2.515 5.61 5.602 5.61 2.8 0 5.13-2.077 5.55-4.764.016-.11.028-.22.032-.33.015-.124.063-.17.186-.218l1.47-.39c.17-.046.218-.11.204.14z"/><path fill="#4D59A0" d="M14.812 30.557a3.1 3.1 0 0 1-.772.326 3.45 3.45 0 0 1-.82.102c-.33 0-.626-.055-.9-.148s-.514-.25-.718-.438a2.068 2.068 0 0 1-.477-.704 2.26 2.26 0 0 1-.167-.86c0-.655.215-1.17.645-1.563.437-.404 1.007-.594 1.71-.594.258 0 .508.017.743.08.242.05.484.14.718.25v.983a2.683 2.683 0 0 0-.695-.342 2.587 2.587 0 0 0-.697-.11c-.42 0-.75.125-.992.344-.24.234-.36.547-.36.953 0 .39.112.7.345.922.227.233.54.358.93.358.25 0 .5-.047.75-.14.256-.08.507-.22.757-.392v.97zm.524.357v-4.172h1.046v1.86l1.415-1.86h1.168l-1.48 1.922 1.843 2.25h-1.352L16.38 28.96v1.954h-1.044zm5.44-1.53h1.233l-.59-1.58-.643 1.58zm-1.745 1.53h1.11l.34-.813h1.795l.298.814h1.096l-1.614-4.172h-1.204l-1.82 4.172zm5.37 0v-3.39h-1.388v-.782h3.858v.78h-1.375v3.392H24.4z"/><g fill="#4D59A0"><path d="M19.75 16.284l6.966-2.56c.125-.03.233-.048.24.11v1.577c0 .19-.038.208-.21.28l-6.97 2.552c-.136.077-.198.03-.198-.11v-1.594c0-.156.012-.188.172-.254zM19.75 13.025l6.966-2.56c.125-.032.233-.05.24.117v1.578c0 .19-.038.208-.21.27l-6.97 2.562c-.136.065-.198.03-.198-.11v-1.595c0-.157.012-.19.172-.262zM19.75 9.598l6.966-2.56c.125-.034.233-.05.24.112v1.575c0 .19-.038.216-.21.278l-6.97 2.553c-.136.075-.198.03-.198-.11V9.853c0-.157.012-.19.172-.255z"/></g></g><g><g transform="translate(1 1)" fill="none" stroke="#FFF" stroke-width="2"><circle stroke-opacity=".5" cx="18" cy="18" r="18"/><path d="M36 18c0-9.94-8.06-18-18-18"><animateTransform type="rotate" fill="remove" restart="always" calcMode="linear" additive="replace" accumulate="none" repeatCount="indefinite" dur="1s" to="360 18 18" from="0 18 18" attributeName="transform"/></path></g></g></svg>